# xmcd
#
# Track frame offsets:
#	150
#	12321
#	25762
#	36321
#	48711
#	58188
#	70573
#	81498
#	92867
#	106462
#	119064
#	130344
#	145543
#	157487
#	172953
#	182682
#
# Disc length: 2576 seconds
#
# Revision: 1
# Processed by: cddbd v1.5.2PL0 Copyright (c) Steve Scherf et al.
# Submitted via: audiograbber 1.83.01
#
DISCID=e80a0e10
DTITLE=Various Artist - All The... 60's [Disc 1]
DYEAR=2012
DGENRE=Pop
TTITLE0=The Shirelles - Will You Love Me Tomorrow?
TTITLE1=Gene Pitney - The Man Who Shot Liberty Valance
TTITLE2=Del Shannon - Runaway
TTITLE3=The Archies - Sugar Sugar
TTITLE4=Eddie Hodges - I'm Gonna Knock On Your Door
TTITLE5=The Monkees - I'm A Believer
TTITLE6=The Everly Brothers - Cathy's Clown
TTITLE7=Bobby Darin - Dream Lover
TTITLE8=Trini Lopez - If I Had A Hammer
TTITLE9=Edison Lighthouse - Love Grows (Where My Rosemary Goes)
TTITLE10=Paul and Paula - Hey Paula
TTITLE11=Frankie Valli - Can't Take My Eyes Off You
TTITLE12=Esther Phillips - And I Love Her
TTITLE13=The Association - Cherish
TTITLE14=Ned Miller - From A Jack To A King
TTITLE15=Mel Torme - Cast Your Fate To The Wind
EXTD=
EXTT0=
EXTT1=
EXTT2=
EXTT3=
EXTT4=
EXTT5=
EXTT6=
EXTT7=
EXTT8=
EXTT9=
EXTT10=
EXTT11=
EXTT12=
EXTT13=
EXTT14=
EXTT15=
PLAYORDER=
